<svg width="51" height="45" viewBox="0 0 51 45" fill="none" xmlns="http://www.w3.org/2000/svg">
<path d="M45 5.50001C24 -4.49998 -5.99994 1.80002 2.00006 29C12.0001 63 80 31 34.5001 7.5" stroke="#E2001A" stroke-linecap="round"/>
<path d="M12 21.9624C12.6492 22.0273 13.1873 22.453 13.8796 22.5189C16.2027 22.7402 18.5497 23.0457 20.8833 23.0964C24.2535 23.1697 27.6108 23.2854 30.9846 23.2854C33.3507 23.2854 35.7168 23.2854 38.0829 23.2854" stroke="#E2001A" stroke-linecap="round"/>
<path d="M25.2304 11C24.6085 12.3214 25.0414 14.4238 25.0414 15.8302C25.0414 19.3163 25.0414 22.8024 25.0414 26.2885C25.0414 28.9416 25.0414 31.5947 25.0414 34.2478" stroke="#E2001A" stroke-linecap="round"/>
</svg>
