<svg width="110" height="110" viewBox="0 0 110 110" fill="none" xmlns="http://www.w3.org/2000/svg">
<path d="M55.5433 50.7724C69.3919 50.7724 82.5541 49.4737 90.9915 47.3288C89.9506 44.9949 87.4626 43.233 84.4172 42.7756C84.0195 41.4887 82.6012 40.5348 80.9076 40.5348C80.7304 40.5348 80.559 40.5485 80.3886 40.5691C80.3886 40.5573 80.3905 40.5465 80.3905 40.5348C80.3905 39.1274 79.0002 37.9864 77.2844 37.9864C76.7702 37.9864 76.2859 38.0902 75.8594 38.2724C75.2383 35.6888 72.4634 33.7407 69.132 33.7407C67.421 33.7407 65.8583 34.2549 64.6567 35.106C64.0154 34.6819 63.2124 34.4204 62.3352 34.3862C61.0383 33.4567 59.3427 32.8926 57.4854 32.8926C56.252 32.8926 55.0908 33.1414 54.0702 33.5801C52.9745 32.8828 51.6005 32.4666 50.1081 32.4666C47.3264 32.4666 44.9549 33.9072 44.0412 35.9277C43.6281 35.818 43.1881 35.7583 42.7317 35.7583C41.272 35.7583 39.9857 36.3596 39.2154 37.2763C38.1967 36.7847 37.0105 36.5016 35.7443 36.5016C32.5313 36.5016 29.8344 38.3135 29.0901 40.761C26.9497 40.8923 25.2609 42.3555 25.2609 44.1458C25.2609 44.1595 25.2628 44.1722 25.2628 44.186C25.05 44.1624 24.8343 44.1458 24.6138 44.1458C22.2982 44.1458 20.3667 45.4944 19.9219 47.2867C28.3516 49.4561 41.5994 50.7724 55.5433 50.7724Z" fill="#E2001A"/>
<path d="M103.574 69.4328L97.5914 49.7346C97.3908 49.0726 96.7842 48.6199 96.097 48.6199H95.2471C95.0853 48.6199 94.9244 48.6454 94.7703 48.6952C86.2778 51.4359 71.5809 53.0737 55.4565 53.0737C39.3331 53.0737 24.6362 51.4369 16.1418 48.6942C15.9877 48.6444 15.8268 48.619 15.665 48.619H14.8151C14.128 48.619 13.5223 49.0717 13.3207 49.7336L7.3392 69.4328C7.11436 69.9285 7 70.4429 7 70.9611C7 74.4683 11.9038 77.1621 21.9915 79.1978C30.9463 81.0048 42.8307 82.0001 55.4565 82.0001C68.0814 82.0001 79.9668 81.0038 88.9216 79.1978C99.0093 77.1621 103.913 74.4683 103.913 70.9611C103.913 70.4429 103.8 69.9285 103.574 69.4328Z" fill="#E2001A"/>
<path d="M56.0629 65.8108C48.6899 65.9682 48.9427 72.7794 49.6217 74.9155C50.3007 77.0532 53.5756 74.2827 55.5541 73.9663C57.5343 73.6499 60.8935 76.4204 62.5042 74.9155C64.1149 73.4107 63.4375 65.6518 56.0629 65.8108ZM54.0066 64.7283C55.4391 64.6102 56.4437 62.8737 56.2541 60.8481C56.0629 58.8225 54.7471 57.2768 53.3179 57.3933C51.8871 57.5114 50.884 59.2494 51.072 61.2735C51.2632 63.2992 52.5758 64.8449 54.0066 64.7283ZM58.842 64.5815C60.2161 64.969 61.843 63.7049 62.4685 61.7595C63.094 59.8141 62.4944 57.9202 61.1171 57.5326C59.7397 57.145 58.116 58.4092 57.4905 60.3561C56.8634 62.3 57.4678 64.1924 58.842 64.5815ZM66.1404 62.0078C64.9948 61.4552 63.3403 62.3227 62.4491 63.9441C61.5514 65.5655 61.7539 67.3277 62.8995 67.8803C64.0452 68.4314 65.7013 67.5654 66.5941 65.9425C67.4886 64.3226 67.2861 62.5604 66.1404 62.0078ZM50.0819 67.5154C51.2178 66.9477 51.3928 65.1825 50.4708 63.5747C49.5472 61.9669 47.8797 61.1221 46.7438 61.6914C45.6095 62.2591 45.4345 64.0228 46.3598 65.6321C47.2818 67.2384 48.9492 68.0832 50.0819 67.5154Z" fill="white"/>
</svg>
