<svg width="110" height="110" viewBox="0 0 110 110" fill="none" xmlns="http://www.w3.org/2000/svg">
<g clip-path="url(#clip0_80_855)">
<g clip-path="url(#clip1_80_855)">
<path d="M70.0503 82.1969C70.2233 73.207 65.0307 65.5192 63.3226 56.916C61.992 50.2113 62.526 43.091 64.6028 36.5897C63.8882 43.7301 63.5751 50.8517 65.2251 57.8954C67.0999 65.8934 71.6145 73.7469 70.0503 82.1969Z" fill="#E2001A"/>
<path d="M79.164 19.2225C68.5289 40.3814 97.3815 70.4032 77.5796 88.1532C90.3735 66.9354 60.7079 38.4302 79.164 19.2225Z" fill="#E2001A"/>
<path d="M85.6305 46.0804C86.7465 60.429 92.3128 76.2517 82.9604 86.133L82.8657 86.2799C94.9956 76.3195 88.6365 60.8371 85.6305 46.0804Z" fill="#E2001A"/>
<path d="M72.808 24.9302C62.1729 46.089 91.0254 76.1109 71.2235 93.8608C84.02 72.6443 54.3544 44.1378 72.808 24.9302Z" fill="#E2001A"/>
</g>
<path d="M23.3872 25.0729L42.0427 18.8399C43.1004 18.5213 44.2196 19.0693 44.6396 20.0851L29.4167 26.5633C29.0107 26.7313 28.8022 27.2341 28.9702 27.6401C29.1382 28.046 29.5694 28.2248 30.0173 28.1581L44.6326 22.9429C45.1406 22.7327 45.6851 23.043 45.895 23.5502C46.1053 24.0582 45.8671 24.6327 45.3593 24.8424L30.4705 31.1222C30.0645 31.2902 29.856 31.7931 30.024 32.199C30.192 32.605 30.6232 32.7838 31.0711 32.7171L46.2956 27.2497C46.8036 27.0395 47.3482 27.3498 47.5581 27.8571C47.7683 28.3651 47.5301 28.9395 47.0223 29.1492L32.2354 35.3873C31.8294 35.5553 31.6209 36.0582 31.7889 36.4641C31.9569 36.8701 32.3882 37.0489 32.836 36.9822L47.8886 31.5291C48.3966 31.3189 48.9411 31.6292 49.151 32.1365C49.3613 32.6445 49.1231 33.219 48.6153 33.4287L33.5236 39.7928C33.1177 39.9608 32.9092 40.4637 33.0772 40.8696C33.2452 41.2756 33.6764 41.4544 34.1243 41.3877L49.5816 35.765C50.0896 35.5548 50.6342 35.8651 50.8441 36.3724C51.0543 36.8804 50.8161 37.4548 50.3084 37.6645L35.3181 43.9868C34.9121 44.1548 34.7036 44.6576 34.8716 45.0636C35.0396 45.4695 35.4709 45.6483 35.9187 45.5817L51.2754 40.0011C51.7834 39.7909 52.3279 40.1011 52.5675 40.5368C52.7777 41.0448 52.5396 41.6192 52.0318 41.8289L37.0415 48.1512C36.6356 48.3192 36.4271 48.822 36.5951 49.228C36.7631 49.634 37.1943 49.8127 37.6422 49.7461L53.0704 44.1951C53.5784 43.9849 54.1229 44.2952 54.3625 44.7309C54.5727 45.2389 54.3346 45.8133 53.8268 46.023L39.2432 52.177C38.8372 52.345 38.6287 52.8478 38.7967 53.2538C38.9647 53.6598 39.3959 53.8385 39.8438 53.7719L54.8356 48.4609C55.3436 48.2507 55.8882 48.561 56.0562 48.9669C56.2664 49.4749 56.0282 50.0494 55.5204 50.2591L40.8347 56.4553C40.4287 56.6233 40.2202 57.1261 40.3882 57.5321C40.5562 57.9381 40.9875 58.1169 41.4353 58.0502L56.5883 52.5531C57.0664 52.415 57.6409 52.6532 57.8089 53.0592C58.0191 53.5672 57.7809 54.1416 57.2731 54.3513L43.2987 60.2532C42.8928 60.4212 42.6843 60.924 42.8523 61.33C43.0203 61.7359 43.4515 61.9147 43.8994 61.848L59.3398 56.4702C59.7602 57.4862 59.3557 58.6643 58.4119 59.1146L47.5456 64.6224C44.9049 65.7151 43.6964 68.8325 44.9626 71.461L53.7116 89.7301C54.9359 92.2572 53.7871 95.2303 51.2179 96.3533C48.7801 97.3621 45.9082 96.1714 44.8994 93.7335L19.9752 33.503C18.5585 30.2228 20.1364 26.417 23.3862 25.0721L23.3872 25.0729ZM47.0979 92.289C47.5603 93.4063 48.9246 93.972 50.0419 93.5096C51.1592 93.0473 51.7248 91.683 51.2625 90.5657C50.8001 89.4484 49.4358 88.8827 48.3185 89.3451C47.201 89.8079 46.6356 91.1717 47.0979 92.289Z" fill="#E2001A"/>
</g>
<defs>
<clipPath id="clip0_80_855">
<rect width="110" height="110" fill="white"/>
</clipPath>
<clipPath id="clip1_80_855">
<rect width="27.4045" height="74.6334" fill="white" transform="translate(62.5956 19.2225)"/>
</clipPath>
</defs>
</svg>
