<svg width="110" height="110" viewBox="0 0 110 110" fill="none" xmlns="http://www.w3.org/2000/svg">
<path d="M11.5287 60.1858C11.3703 59.4911 11.8982 58.8293 12.6107 58.8293H96.389C97.1015 58.8293 97.6294 59.4911 97.471 60.1858L88.3593 100.137C88.2442 100.642 87.7952 101 87.2774 101H21.7224C21.2046 101 20.7556 100.642 20.6404 100.137L11.5287 60.1858Z" fill="#E2001A"/>
<path d="M55.069 80.3102C48.1458 80.458 48.3832 86.8536 49.0207 88.8594C49.6583 90.8667 52.7334 88.2652 54.5912 87.9681C56.4506 87.671 59.6048 90.2724 61.1172 88.8594C62.6296 87.4464 61.9936 80.1609 55.069 80.3102ZM53.1381 79.2938C54.4832 79.1829 55.4265 77.5524 55.2485 75.6503C55.069 73.7483 53.8335 72.2969 52.4914 72.4063C51.1479 72.5172 50.206 74.1491 50.3825 76.0498C50.5621 77.9518 51.7946 79.4032 53.1381 79.2938ZM57.6785 79.1559C58.9687 79.5198 60.4964 78.3328 61.0837 76.5061C61.6711 74.6794 61.1081 72.901 59.8147 72.5371C58.5214 72.1732 56.9968 73.3602 56.4095 75.1883C55.8206 77.0136 56.3882 78.7905 57.6785 79.1559ZM64.5316 76.7392C63.4559 76.2204 61.9023 77.0349 61.0655 78.5574C60.2225 80.0799 60.4127 81.7346 61.4885 82.2534C62.5642 82.7709 64.1193 81.9578 64.9576 80.4339C65.7975 78.9128 65.6073 77.2581 64.5316 76.7392ZM49.4529 81.9108C50.5195 81.3778 50.6838 79.7202 49.818 78.2105C48.9507 76.7008 47.3851 75.9076 46.3184 76.4421C45.2533 76.9752 45.089 78.6313 45.9578 80.1424C46.8236 81.6507 48.3893 82.4439 49.4529 81.9108Z" fill="white"/>
<path d="M11.8168 46.2154C11.5299 46.9435 12.0667 47.7319 12.8493 47.7319H96.1505C96.9331 47.7319 97.4698 46.9435 97.183 46.2154L88.4394 24.0202C88.2723 23.5961 87.8628 23.3172 87.4069 23.3172H21.5928C21.1369 23.3172 20.7274 23.5961 20.5603 24.0202L11.8168 46.2154Z" fill="#E2001A"/>
<rect x="37.8535" y="29.9756" width="2.21951" height="13.3171" rx="1.10976" fill="white"/>
<rect x="48.9506" y="29.9753" width="2.21951" height="13.3171" rx="1.10976" fill="white"/>
<rect x="60.0483" y="29.9753" width="2.21951" height="13.3171" rx="1.10976" fill="white"/>
<rect x="71.1458" y="29.9753" width="2.21951" height="13.3171" rx="1.10976" fill="white"/>
<path d="M32.4499 26.5716C32.3996 26.7362 32.5227 26.9025 32.6948 26.9025H78.5251C78.6972 26.9025 78.8203 26.7362 78.77 26.5716L74.0227 11.035C73.9898 10.9273 73.8904 10.8537 73.7778 10.8537H37.4421C37.3295 10.8537 37.2301 10.9273 37.1972 11.035L32.4499 26.5716Z" stroke="#E2001A" stroke-width="1.70732"/>
<rect x="9.00006" y="49.9513" width="91.0001" height="6.65854" rx="1.70732" fill="#E2001A"/>
</svg>
