<svg width="110" height="110" viewBox="0 0 110 110" fill="none" xmlns="http://www.w3.org/2000/svg">
<g clip-path="url(#clip0_80_861)">
<path d="M91.4887 72.0129L91.3756 71.7101L91.0717 71.8202L85.8003 73.7291L85.4902 73.8414L85.6056 74.1504L86.7551 77.2271L86.8682 77.5298L87.1721 77.4198L92.4435 75.5108L92.7536 75.3985L92.6382 75.0896L91.4887 72.0129ZM84.7733 71.9224L84.8875 72.2283L85.1934 72.114L90.3919 70.1718L90.6977 70.0576L90.5835 69.7517L89.434 66.6751L89.3198 66.3692L89.0139 66.4835L83.8154 68.4256L83.5095 68.5399L83.6238 68.8458L84.7733 71.9224ZM93.4705 77.3175L93.3574 77.0147L93.0535 77.1248L87.7821 79.0337L87.472 79.146L87.5874 79.455L88.7369 82.5317L88.85 82.8344L89.1539 82.7244L94.4253 80.8154L94.7354 80.7031L94.62 80.3942L93.4705 77.3175ZM88.5162 64.8276L88.822 64.7133L88.7077 64.4075L73.2495 23.0315C72.9374 22.196 72.3122 21.6188 71.5898 21.2894C70.8674 20.96 70.0217 20.8664 69.1862 21.1785C67.532 21.7966 66.7152 23.5877 67.3332 25.2419L82.7914 66.6178L82.9057 66.9237L83.2116 66.8094L88.5162 64.8276ZM89.8337 84.3727L89.5279 84.487L89.6421 84.7928L89.7986 85.2118C90.345 86.8464 92.1455 87.6518 93.7912 87.037C95.3452 86.4563 96.1487 84.6659 95.6149 83.0579L95.6151 83.0578L95.6109 83.0465L95.4524 82.6221L95.3381 82.3163L95.0322 82.4305L89.8337 84.3727Z" fill="#E2001A" stroke="#E2001A" stroke-width="0.653004"/>
<path d="M67.933 32.0381C65.5125 32.9425 64.9972 51.6556 60.2238 65.1615C56.7329 75.0385 50.9627 85.4698 42.9303 76.3983C25.1351 56.3013 22.3231 60.0471 18.7173 72.3104C16.013 81.508 13.7692 92.654 13.7692 92.654" stroke="#E2001A" stroke-width="1.8147"/>
<path d="M16.3995 94.7588C15.6746 96.3485 13.7983 97.0495 12.2086 96.3246C10.6189 95.5997 9.91792 93.7233 10.6428 92.1337C11.3678 90.544 13.2441 89.843 14.8338 90.5679C16.4235 91.2928 17.1245 93.1692 16.3995 94.7588Z" fill="#E2001A"/>
</g>
<defs>
<clipPath id="clip0_80_861">
<rect width="110" height="110" fill="white"/>
</clipPath>
</defs>
</svg>
