<svg width="110" height="110" viewBox="0 0 110 110" fill="none" xmlns="http://www.w3.org/2000/svg">
<g clip-path="url(#clip0_81_1012)">
<rect x="0.00012207" y="37.1484" width="110" height="16.2963" rx="5.61539" fill="#E2001A"/>
<rect x="0.00012207" y="57.5183" width="110" height="16.2963" rx="5.61539" fill="#E2001A"/>
<rect x="28.5188" y="29" width="52.963" height="52.963" rx="11.2308" fill="#E2001A"/>
<path d="M54.4724 56.529C44.6408 56.7389 44.9779 65.8214 45.8833 68.6698C46.7886 71.5203 51.1556 67.826 53.7939 67.4041C56.4344 66.9822 60.9138 70.6765 63.0616 68.6698C65.2094 66.6632 64.3062 56.317 54.4724 56.529ZM51.7304 55.0856C53.6405 54.9281 54.9802 52.6126 54.7274 49.9115C54.4724 47.2103 52.7179 45.1492 50.812 45.3046C48.9041 45.4621 47.5665 47.7796 47.8172 50.4787C48.0722 53.1798 49.8224 55.241 51.7304 55.0856ZM58.1782 54.8897C60.0105 55.4065 62.18 53.7209 63.014 51.1268C63.8481 48.5326 63.0486 46.0072 61.2119 45.4904C59.3753 44.9736 57.2101 46.6592 56.3761 49.2554C55.5399 51.8475 56.3458 54.3709 58.1782 54.8897ZM67.9104 51.4578C66.3827 50.721 64.1765 51.8777 62.9881 54.0398C61.791 56.2019 62.0611 58.5518 63.5888 59.2886C65.1165 60.0235 67.3248 58.8687 68.5154 56.7046C69.7082 54.5445 69.4381 52.1947 67.9104 51.4578ZM46.4969 58.8021C48.0116 58.0451 48.245 55.6912 47.0155 53.5473C45.7839 51.4033 43.5604 50.2769 42.0457 51.0359C40.5331 51.793 40.2998 54.1448 41.5336 56.2908C42.7631 58.4327 44.9865 59.5592 46.4969 58.8021Z" fill="#F6F6F6"/>
<circle cx="14.2592" cy="43.2592" r="2.03704" fill="#F6F6F6"/>
<circle cx="91.6672" cy="43.2592" r="2.03704" fill="#F6F6F6"/>
<circle cx="91.6672" cy="63.6296" r="2.03704" fill="#F6F6F6"/>
<circle cx="14.2592" cy="63.6296" r="2.03704" fill="#F6F6F6"/>
</g>
<defs>
<clipPath id="clip0_81_1012">
<rect width="110" height="110" fill="white"/>
</clipPath>
</defs>
</svg>
