<svg width="110" height="110" viewBox="0 0 110 110" fill="none" xmlns="http://www.w3.org/2000/svg">
<path d="M35.7379 94.5039C48.2957 94.5039 58.4759 84.3238 58.4759 71.766C58.4759 59.2082 48.2957 49.0281 35.7379 49.0281C23.1801 49.0281 13 59.2082 13 71.766C13 84.3238 23.1801 94.5039 35.7379 94.5039Z" fill="#E2001A"/>
<path d="M13.5762 65.9651C13.5762 65.9651 33.5412 70.8565 39.3754 49.0281" stroke="#F6F6F6" stroke-width="1.8024" stroke-miterlimit="10"/>
<path d="M32.3561 94.6833C32.3561 94.6833 35.9831 73.9973 58.477 77.2804" stroke="#F6F6F6" stroke-width="1.81973" stroke-miterlimit="10"/>
<path d="M45.0888 24.6288C45.0888 24.6288 44.8005 15.0012 54.2727 15.0012C56.3984 14.9686 58.4827 15.5894 60.2442 16.7796C62.0056 17.9697 63.3593 19.672 64.1222 21.6562C64.7024 22.9044 64.9306 24.2873 64.782 25.6557C64.6334 27.0241 64.1138 28.3259 63.2792 29.4204C62.7903 30.0588 62.16 30.5751 61.438 30.9289L82.5122 56.0737L71.8752 65.546L49.9359 40.5897" fill="#E2001A"/>
<path d="M88.2354 72.6111C88.2354 72.6111 88.5015 82.2276 79.0182 82.2054C76.8953 82.2382 74.8137 81.6173 73.0557 80.4268C71.2977 79.2363 69.9485 77.5339 69.1909 75.5504C68.6114 74.3009 68.3855 72.9163 68.5381 71.5474C68.6906 70.1785 69.2157 68.8776 70.0561 67.7863C70.5488 67.1544 71.1783 66.6425 71.8973 66.2889L50.9119 41.0553L61.571 31.6052L83.4216 56.6169" fill="#E2001A"/>
<path d="M86.8708 72.6334C86.8708 72.6334 96.3653 74.2196 97.6519 64.8693C97.9721 62.768 97.6396 60.6192 96.6994 58.713C95.7592 56.8067 94.2566 55.235 92.3945 54.2102C91.2338 53.462 89.8905 53.0457 88.5101 53.0066C87.1297 52.9675 85.7649 53.307 84.5638 53.9883C83.8891 54.3828 83.3127 54.9251 82.8778 55.5745L60.761 31.2837L49.9355 40.5674L71.6863 65.6679" fill="#E2001A"/>
<path d="M46.7972 24.6276C46.7972 24.6276 37.3693 22.7088 35.761 32.0479C35.3658 34.1367 35.622 36.2964 36.4949 38.2347C37.3678 40.1729 38.8153 41.7962 40.6414 42.8845C41.7685 43.6648 43.0873 44.1226 44.4555 44.2086C45.8238 44.2946 47.1895 44.0056 48.4055 43.3725C49.1133 42.9962 49.7274 42.4655 50.2024 41.8197L71.454 66.776L82.5457 57.9026L61.7266 32.0701" fill="#E2001A"/>
</svg>
