<svg width="110" height="110" viewBox="0 0 110 110" fill="none" xmlns="http://www.w3.org/2000/svg">
<path fill-rule="evenodd" clip-rule="evenodd" d="M15.3801 93.8565C14.9678 92.1326 15.2725 89.8098 15.2456 87.9861C15.1829 83.3314 15.1202 78.6768 15.0664 74.0131C15.0216 70.2839 14.9678 66.5547 14.923 62.8165C14.905 61.1742 15.416 61.8003 16.2227 60.5935C16.7605 59.786 16.7694 58.7607 16.2765 57.935C16.0075 57.4904 15.6132 57.3725 15.3174 57.0186C15.2008 56.8825 14.923 56.9097 14.8423 56.7827C14.5375 56.3109 14.8154 54.7049 14.8064 54.1514C14.7885 52.6725 14.3583 52.4184 15.5594 52.2823C16.5723 52.1643 17.7375 52.364 18.7594 52.4002C21.3677 52.491 23.9851 52.5273 26.6024 52.5091C29.3901 52.491 32.5632 52.6724 35.2523 51.8014C37.4663 51.0846 39.6085 49.5693 41.3206 47.9815C41.8405 48.9342 42.8982 50.1954 43.1043 51.2479C43.1043 51.2479 43.2298 51.5111 42.8623 52.2188C42.5844 52.7541 42.4052 53.3167 42.1542 53.8429C41.1772 55.9026 36.3987 56.7276 34.2385 57.3264C34.4805 58.3336 34.6511 60.1398 35.4757 60.4665C35.9956 60.6661 37.0809 59.866 37.6366 59.875C38.4433 59.8841 39.1424 59.9312 39.9402 59.9675C40.8007 60.0037 40.6662 60.0582 41.2489 60.4665C41.6253 60.7205 42.9699 61.274 43.0954 61.4736C43.3463 61.8547 43.1222 63.2792 43.1222 63.7238C43.1402 65.2028 43.1581 66.6818 43.176 68.1607C43.2746 75.6463 43.3732 83.1409 43.4718 90.6355C43.4808 91.316 43.7945 93.1035 43.3284 93.4664C42.9699 93.7386 41.4012 93.4936 40.971 93.5027L36.2472 93.5662C29.2915 93.666 22.3358 93.7658 15.3801 93.8565Z" fill="#E2001A"/>
<path d="M43.212 95.2948C42.8392 95.3042 42.4198 95.2669 41.9352 95.2297C41.7302 95.2111 41.5624 95.1925 41.4599 95.1925L14.8425 95.5554C14.3206 95.5647 13.8639 95.2111 13.7428 94.6992C13.4073 93.3219 13.4632 91.7399 13.5284 90.2136C13.5564 89.5901 13.575 88.9945 13.575 88.4361L13.2302 62.6298C13.2116 61.2618 13.5564 60.7593 14.2367 60.2567C14.4138 60.1265 14.5723 60.0148 14.7773 59.7077C15.0848 59.2517 15.0942 58.6747 14.8052 58.1908C14.7587 58.1163 14.6748 58.0512 14.5163 57.9395V57.9395C14.233 57.7219 13.8966 57.5731 13.6129 57.3559C13.5057 57.2738 13.4026 57.1674 13.3141 57.0275C12.9226 56.4133 12.9692 55.5292 13.0718 54.338C13.0904 54.096 13.109 53.882 13.109 53.7424C13.0997 53.4073 13.0718 53.1468 13.0438 52.9327C12.932 51.8904 13.0811 50.9039 14.8798 50.6992C15.7 50.6061 16.5294 50.6806 17.3309 50.7457C17.6851 50.7737 18.0299 50.8016 18.3654 50.8202C20.947 50.9133 23.6684 50.9412 26.4643 50.9319H27.8903C30.3786 50.9412 32.9416 50.9598 35.1224 50.2525C36.9864 49.6569 39.074 48.3447 41.0125 46.5765C41.2642 46.3439 41.6183 46.2415 41.9538 46.2973C42.2894 46.3532 42.5876 46.5579 42.746 46.8557C42.9045 47.1442 43.1188 47.4606 43.3332 47.7957C43.8924 48.6332 44.5261 49.5918 44.7125 50.541L44.7777 50.8481C44.8034 50.9652 44.77 51.2241 44.72 51.4952C44.6127 52.0767 44.4446 52.6466 44.2092 53.1891V53.1891C44.0974 53.459 43.9949 53.7195 43.8644 53.9708C42.8021 56.192 38.9272 57.3927 36.3066 58.1329C36.1873 58.1666 36.1127 58.3179 36.1277 58.441V58.441C36.1473 58.6016 36.3215 58.6736 36.4823 58.6555C36.6717 58.6342 36.9053 58.6158 37.0609 58.6002C37.3405 58.5723 37.5922 58.563 37.8065 58.563H38.5987C39.1859 58.5537 39.7917 58.5537 40.3695 58.5816C41.2455 58.6188 41.5345 58.7119 42.0564 59.1028L42.308 59.2796C42.4478 59.3727 42.746 59.5122 43.0443 59.6518C43.9203 60.0706 44.2838 60.2661 44.5261 60.6104C44.9082 61.1781 44.8803 61.9505 44.7871 63.0672C44.7684 63.2627 44.7498 63.4302 44.7498 63.5326L45.1692 91.1163C45.1692 91.2652 45.1878 91.4607 45.2065 91.6933C45.3183 92.959 45.4301 94.2712 44.5727 94.9319C44.2279 95.1925 43.7805 95.2855 43.212 95.2948Z" stroke="#E2001A" stroke-width="1.69908" stroke-miterlimit="10"/>
<path d="M95.8911 89.6413C94.8761 77.3183 96.0548 62.8923 95.2908 49.0182C94.5268 35.1442 92.7479 18.2536 92.7479 18.2536L92.1258 17.9491L92.7479 17.5589L92.7151 15.6177C92.6933 13.7526 90.7397 14.0856 90.7397 14.0856L52.9554 14C49.4848 14.0285 50.0305 15.1895 50.0305 15.1895L50.1506 17.9015L50.9582 18.1299C50.9582 18.1299 50.1615 18.6057 50.1615 18.52C50.8381 23.63 50.7617 33.4789 50.4998 42.3191C50.2379 51.1593 50.8709 86.0443 50.6417 89.5366C50.4125 93.0289 51.1328 93.952 51.8531 95.0273C52.2351 95.5982 52.7808 95.7505 53.2065 95.779C53.0755 95.7029 53.0209 95.5697 53.0973 95.4079C53.4466 94.6276 54.0032 80.1255 53.5011 65.8613C52.9991 51.597 52.628 45.7067 52.628 45.7067C52.3224 34.3163 51.2092 13.0484 51.9623 21.6031C52.2242 24.5435 53.1301 30.9762 54.3197 51.5114C55.5093 72.0465 55.1819 91.8204 55.2037 93.9995C55.2146 94.9131 54.7781 95.446 54.2979 95.6934C58.3906 95.5126 92.0603 94.0091 94.0685 93.9139C96.2076 93.8283 96.1094 93.362 95.8911 89.6413Z" fill="#E2001A"/>
<path d="M74.6492 42.1249C82.1097 42.1249 88.1576 38.3646 88.1576 33.726C88.1576 29.0875 82.1097 25.3272 74.6492 25.3272C67.1887 25.3272 61.1407 29.0875 61.1407 33.726C61.1407 38.3646 67.1887 42.1249 74.6492 42.1249Z" fill="white"/>
<path d="M29.991 79.1313C36.2468 79.1313 41.3182 75.9617 41.3182 72.0518C41.3182 68.1419 36.2468 64.9723 29.991 64.9723C23.7352 64.9723 18.6638 68.1419 18.6638 72.0518C18.6638 75.9617 23.7352 79.1313 29.991 79.1313Z" fill="white"/>
</svg>
