<svg width="110" height="110" viewBox="0 0 110 110" fill="none" xmlns="http://www.w3.org/2000/svg">
<path d="M96.2345 37.0515L94.6805 36.769L96.2345 37.0515ZM35.2193 65.3864L35.502 66.9403L35.2193 65.3864ZM46.1147 22.294C53.5894 22.2938 66.7086 22.3524 77.5746 24.3906C83.0284 25.4136 87.7299 26.9044 90.8545 29.0086C92.4007 30.0499 93.4913 31.1954 94.1276 32.4404C94.7517 33.6616 94.9888 35.0736 94.6805 36.769L97.7884 37.3341C98.2128 34.9997 97.8992 32.8788 96.9403 31.0028C95.9937 29.1505 94.469 27.6344 92.6189 26.3885C88.9509 23.9183 83.7354 22.3323 78.157 21.2859C66.9586 19.1853 53.5525 19.135 46.1146 19.1352L46.1147 22.294ZM94.6805 36.769C94.229 39.2525 93.2693 41.5827 91.3925 43.8389C89.4998 46.1145 86.6207 48.3784 82.2399 50.6295C73.4447 55.1489 58.8795 59.4768 34.9366 63.8325L35.502 66.9403C59.4996 62.5747 74.4516 58.1829 83.6836 53.4391C88.3164 51.0586 91.5785 48.555 93.821 45.859C96.0797 43.1437 97.2495 40.2983 97.7884 37.3341L94.6805 36.769ZM34.9366 63.8325C28.31 65.038 23.0113 66.4322 18.9496 67.96C14.92 69.4757 11.9685 71.1738 10.1786 73.0683C8.31758 75.0379 7.63685 77.3358 8.51765 79.6814C9.32763 81.8384 11.3486 83.7043 14.0151 85.3071C19.4006 88.5442 28.4154 91.2956 39.9941 93.1128C51.6172 94.9369 65.9668 95.8411 82.1237 95.2934L82.0167 92.1364C66.0317 92.6782 51.8841 91.7813 40.4838 89.9921C29.039 88.196 20.504 85.5219 15.6425 82.5997C13.1854 81.1229 11.9085 79.7257 11.4749 78.5709C11.1121 77.6048 11.242 76.5423 12.4746 75.2377C13.7783 73.8579 16.2033 72.3679 20.0617 70.9166C23.8881 69.4772 28.989 68.1252 35.502 66.9403L34.9366 63.8325Z" fill="#E2001A"/>
<rect x="79.8909" y="89.3516" width="2.17911" height="8.71644" rx="1.08955" fill="#E2001A"/>
<rect x="82.0701" y="89.3516" width="2.17911" height="8.71644" rx="1.08955" fill="#E2001A"/>
<path d="M83.8062 94.4849L82.93 93.1708L80.7559 94.6202L83.0498 95.8715L83.8062 94.4849ZM107.776 89.3485L106.278 89.8478L107.776 89.3485ZM84.6823 95.7991C87.9055 93.6503 93.1466 90.5876 97.8244 88.9808C100.185 88.1699 102.224 87.794 103.726 87.9629C104.455 88.0449 104.988 88.2475 105.372 88.5273C105.741 88.7961 106.062 89.1991 106.278 89.8478L109.275 88.8492C108.87 87.6342 108.18 86.6639 107.231 85.9732C106.297 85.2934 105.203 84.9503 104.079 84.8239C101.876 84.5761 99.3026 85.133 96.7982 85.9933C91.7462 87.7287 86.2442 90.9614 82.93 93.1708L84.6823 95.7991ZM106.278 89.8478C106.604 90.8271 106.378 91.7876 105.48 92.7534C104.536 93.7673 102.896 94.7021 100.692 95.2956C96.3046 96.4773 90.1867 96.1663 84.5625 93.0984L83.0498 95.8715C89.4107 99.3412 96.3674 99.7318 101.514 98.3458C104.076 97.6555 106.318 96.4891 107.792 94.9053C109.311 93.2734 110.038 91.1397 109.275 88.8492L106.278 89.8478Z" fill="#E2001A"/>
<rect x="1.00012" y="16.3599" width="58.836" height="8.71644" rx="3.15884" fill="#E2001A"/>
<rect x="1.00012" y="27.2537" width="58.836" height="8.71644" rx="3.15884" fill="#E2001A"/>
<rect x="16.2539" y="12" width="28.3284" height="28.3284" rx="6.31767" fill="#E2001A"/>
<path d="M30.1365 26.7238C24.8779 26.8361 25.0581 31.6941 25.5424 33.2176C26.0267 34.7423 28.3624 32.7663 29.7736 32.5406C31.1859 32.3149 33.5818 34.2909 34.7306 33.2176C35.8794 32.1443 35.3963 26.6104 30.1365 26.7238ZM28.6699 25.9518C29.6915 25.8676 30.4081 24.629 30.2729 23.1843C30.1365 21.7395 29.198 20.6371 28.1787 20.7202C27.1581 20.8045 26.4427 22.044 26.5768 23.4877C26.7132 24.9325 27.6493 26.0349 28.6699 25.9518ZM32.1186 25.847C33.0987 26.1235 34.2591 25.2218 34.7052 23.8343C35.1513 22.4468 34.7237 21.096 33.7413 20.8196C32.7589 20.5431 31.6008 21.4448 31.1547 22.8334C30.7074 24.2198 31.1385 25.5695 32.1186 25.847ZM37.3241 24.0114C36.507 23.6173 35.327 24.236 34.6913 25.3925C34.051 26.5489 34.1955 27.8058 35.0126 28.1999C35.8297 28.5929 37.0109 27.9753 37.6477 26.8178C38.2857 25.6624 38.1412 24.4055 37.3241 24.0114ZM25.8706 27.9397C26.6808 27.5347 26.8056 26.2757 26.148 25.129C25.4892 23.9823 24.3 23.3797 23.4898 23.7857C22.6808 24.1907 22.556 25.4486 23.2159 26.5964C23.8735 27.7421 25.0628 28.3446 25.8706 27.9397Z" fill="#F6F6F6"/>
<circle cx="8.62727" cy="19.6272" r="1.08955" fill="#F6F6F6"/>
<circle cx="50.0299" cy="19.6272" r="1.08955" fill="#F6F6F6"/>
<circle cx="50.0299" cy="30.521" r="1.08955" fill="#F6F6F6"/>
<circle cx="8.62727" cy="30.521" r="1.08955" fill="#F6F6F6"/>
</svg>
