<svg width="110" height="110" viewBox="0 0 110 110" fill="none" xmlns="http://www.w3.org/2000/svg">
<rect x="24" y="86.6823" width="59.6363" height="9.31818" rx="2.23636" fill="#E2001A"/>
<rect x="24" y="14" width="61.5" height="9.31818" rx="2.23636" fill="#E2001A"/>
<path d="M35.1815 16.2364C35.1815 15.0013 36.1828 14 37.4179 14H68.3542C69.5893 14 70.5906 15.0013 70.5906 16.2364V86.6818H35.1815V16.2364Z" fill="#E2001A"/>
<rect x="35.1815" y="38.2274" width="35.4091" height="3.72727" fill="white"/>
<rect x="35.1815" y="23.3179" width="35.4091" height="3.72727" fill="white"/>
<rect x="35.1815" y="53.137" width="35.4091" height="3.72727" fill="white"/>
<rect x="35.1815" y="68.0452" width="35.4091" height="3.72727" fill="white"/>
<rect x="35.1815" y="82.9547" width="35.4091" height="3.72727" fill="white"/>
<rect x="78.0454" y="21.4547" width="1.86364" height="24.2273" fill="#E2001A"/>
<path d="M83.6367 48.477C83.6367 51.0501 81.5507 53.1361 78.9776 53.1361C76.4044 53.1361 74.3185 51.0501 74.3185 48.477C74.3185 45.9038 76.4044 43.8179 78.9776 43.8179C81.5507 43.8179 83.6367 45.9038 83.6367 48.477Z" fill="#E2001A"/>
</svg>
