<svg width="110" height="110" viewBox="0 0 110 110" fill="none" xmlns="http://www.w3.org/2000/svg">
<path fill-rule="evenodd" clip-rule="evenodd" d="M91.1766 50.6315C96.0303 51.0683 99.8622 51.6798 102.587 52.2913C105.312 52.9028 107.781 53.7764 108.377 55.873C108.377 56.9213 107.781 57.6202 106.76 58.1443L100.799 86.3609C100.543 87.5839 100.458 88.9817 100.884 90.2047C100.969 90.3794 100.969 90.6415 100.969 90.9035C100.969 91.8645 100.969 94.5726 86.6635 97.5427C81.2138 98.6784 69.8033 100.6 54.7313 100.6C39.6593 100.6 28.2488 98.6784 22.7991 97.5427C8.49343 94.5726 8.49343 91.7771 8.49343 90.9035V90.3794C8.74889 88.8943 8.91919 87.4966 8.57858 86.0115L2.6179 58.057C1.68122 57.5328 1 56.7466 1 55.7856C1 53.7764 3.46943 52.9028 6.19431 52.2913C8.9192 51.6798 12.7511 51.1557 17.6048 50.6315C19.6484 50.4568 21.7772 50.2821 23.9912 50.1074C24.2041 50.1074 24.4383 50.0855 24.6724 50.0637C24.9066 50.0419 25.1408 50.02 25.3537 50.02H25.7794C25.9923 50.02 26.1839 49.9982 26.3755 49.9763C26.5671 49.9545 26.7587 49.9327 26.9716 49.9327H27.5676C27.9082 49.8453 28.2488 49.8453 28.5895 49.8453C28.9301 49.7579 29.1855 49.7579 29.441 49.7579C29.7816 49.6706 30.037 49.6706 30.3777 49.6706C30.6331 49.5832 30.9737 49.5832 31.3143 49.5832H31.7401C32.7619 49.4959 33.7838 49.4085 34.8056 49.4085H35.2314C35.7423 49.3212 36.2532 49.3212 36.8492 49.3212H37.5305C38.0414 49.2338 38.6374 49.2338 39.1484 49.2338H39.7444C40.3405 49.1464 41.0217 49.1464 41.6178 49.1464H41.9584C42.8099 49.0591 43.5763 49.0591 44.3427 49.0591H44.513H46.5567H47.2379H48.8558H49.6222H51.3252H52.0064H54.3907H56.775H57.4562H59.1593H59.9256H61.5435H62.2247H64.2684H64.4387C65.2902 49.1464 66.0566 49.1464 66.823 49.1464H67.1636C67.7597 49.2338 68.4409 49.2338 69.037 49.2338H69.633C70.1439 49.3212 70.74 49.3212 71.2509 49.3212H71.9321C72.4431 49.4085 73.0391 49.4085 73.55 49.4085H73.9758C74.4867 49.4522 74.9976 49.474 75.5085 49.4959C76.0195 49.5177 76.5304 49.5396 77.0413 49.5832H77.4671C77.8077 49.6706 78.0631 49.6706 78.4037 49.6706C78.7444 49.7579 78.9998 49.7579 79.3404 49.7579C79.681 49.8453 79.9365 49.8453 80.1919 49.8453C80.5326 49.9327 80.8732 49.9327 81.2138 49.9327H81.8098C82.0227 49.9327 82.2143 49.9545 82.4059 49.9763C82.5975 49.9982 82.7891 50.02 83.002 50.02H83.4277C83.6406 50.02 83.8748 50.0419 84.109 50.0637C84.3431 50.0855 84.5773 50.1074 84.7902 50.1074C87.004 50.2821 89.2183 50.4568 91.1766 50.6315ZM89.133 58.057C97.9037 57.2707 101.906 56.3972 103.694 55.7856L103.353 55.6109C101.565 54.9994 97.5631 54.1258 88.7924 53.3396C88.0686 53.2959 87.3448 53.2304 86.621 53.1649C85.8972 53.0994 85.1734 53.0339 84.4496 52.9902C84.1941 52.9902 83.9387 52.9683 83.6832 52.9465C83.4277 52.9247 83.1723 52.9028 82.9168 52.9028H82.7465C82.5433 52.9028 82.3208 52.8829 82.088 52.8621C81.8331 52.8393 81.566 52.8155 81.2989 52.8155H81.1286C80.8732 52.8155 80.6177 52.7936 80.3623 52.7718C80.1068 52.75 79.8513 52.7281 79.5959 52.7281H78.9147C78.276 52.6844 77.6161 52.6626 76.9561 52.6408C76.2962 52.6189 75.6363 52.5971 74.9976 52.5534C74.6996 52.5534 74.3803 52.5316 74.061 52.5097C73.7416 52.4879 73.4223 52.466 73.1243 52.466H72.5282C72.1976 52.466 71.847 52.4455 71.486 52.4243C71.1032 52.4018 70.7087 52.3787 70.3142 52.3787H70.2291C69.8033 52.3787 69.3988 52.3568 68.9944 52.335C68.5899 52.3132 68.1854 52.2913 67.7597 52.2913H67.2487C66.7378 52.204 66.1418 52.204 65.5457 52.204H64.6942C63.9278 52.1166 63.1614 52.1166 62.3099 52.1166H62.2247H59.7553H59.0741H57.2007H56.5195H53.9649H51.4104H50.7291H48.8558H48.1746H45.7051H45.62C44.8536 52.204 44.0021 52.204 43.2357 52.204H42.3842C41.7881 52.2913 41.2772 52.2913 40.6811 52.2913H40.1702C39.7444 52.2913 39.34 52.3132 38.9355 52.335C38.531 52.3568 38.1265 52.3787 37.7008 52.3787H37.6156C37.285 52.3787 36.9344 52.3993 36.5735 52.4204C36.1906 52.4429 35.7961 52.466 35.4017 52.466H34.8056C34.4536 52.466 34.1244 52.4894 33.8061 52.5119C33.5084 52.533 33.2203 52.5534 32.9322 52.5534C32.2624 52.5964 31.6131 52.6182 30.9743 52.6397C30.3138 52.6619 29.6645 52.6837 29.0152 52.7281H28.334C28.0785 52.7281 27.8231 52.75 27.5676 52.7718C27.3122 52.7936 27.0567 52.8155 26.8012 52.8155H26.6309C26.4278 52.8155 26.2052 52.8354 25.9725 52.8562C25.7175 52.879 25.4504 52.9028 25.1833 52.9028H25.013C24.7576 52.9028 24.5021 52.9247 24.2467 52.9465C23.9912 52.9683 23.7358 52.9902 23.4803 52.9902C22.6461 53.0377 21.8372 53.1111 21.0535 53.1823C20.3971 53.2418 19.7585 53.2998 19.1375 53.3396C10.3668 54.1258 6.36462 54.9994 4.57641 55.6109V55.7856C6.44977 56.3972 10.4519 57.2707 19.1375 58.057C19.7585 58.0968 20.3971 58.1547 21.0534 58.2143C21.8372 58.2854 22.6461 58.3588 23.4803 58.4064C25.9497 58.5811 27.7379 60.6777 27.7379 63.1237V63.2111C27.7379 78.0619 39.5741 90.2047 54.1352 90.2047C68.6963 90.2047 80.5326 78.0619 80.5326 63.2111V63.1237C80.5326 60.6777 82.4059 58.5811 84.7902 58.4064C85.6244 58.3588 86.4333 58.2854 87.217 58.2143C87.8734 58.1547 88.512 58.0968 89.133 58.057ZM54.1355 87.5839C41.9587 87.5839 31.8255 78.1493 30.4631 66.0065C33.1028 64.6961 42.8102 61.9881 54.8167 62.2501C68.9521 62.5996 75.1682 65.2203 78.1486 66.7927C75.594 78.9355 65.3757 87.5839 54.1355 87.5839Z" fill="#E2001A"/>
<path d="M23.5492 35.0994C16.2546 35.9095 14.2432 48.3426 13.8853 53.3536C48.246 47.9181 79.3855 50.0657 97.6397 53.3536C97.6397 47.9848 96.3511 37.0326 91.197 36.1736C86.0429 35.3145 81.533 35.8156 79.3855 32.9522C71.6543 22.644 74.0166 20.0672 66.5002 20.0672C36.4345 20.0672 41.8034 18.9928 37.5083 25.4354C33.2132 31.8781 33.2132 34.0262 23.5492 35.0994Z" fill="#E2001A"/>
<path d="M55.9289 35.6307C47.6743 35.807 47.9573 43.4325 48.7175 45.8241C49.4776 48.2173 53.1441 45.1156 55.3592 44.7613C57.5761 44.4071 61.3369 47.5088 63.1402 45.8241C64.9435 44.1393 64.1852 35.4528 55.9289 35.6307ZM53.6267 34.4188C55.2304 34.2866 56.3552 32.3425 56.1429 30.0747C55.9289 27.8069 54.4557 26.0764 52.8556 26.2069C51.2537 26.3391 50.1307 28.2849 50.3412 30.551C50.5553 32.8188 52.0247 34.5494 53.6267 34.4188ZM59.0402 34.2544C60.5786 34.6883 62.4 33.2731 63.1003 31.0951C63.8006 28.9171 63.1293 26.7967 61.5873 26.3628C60.0452 25.9289 58.2274 27.3442 57.5271 29.5239C56.8251 31.7002 57.5017 33.8188 59.0402 34.2544ZM67.2112 31.373C65.9286 30.7544 64.0763 31.7256 63.0785 33.5409C62.0735 35.3561 62.3003 37.329 63.5829 37.9477C64.8655 38.5647 66.7196 37.5952 67.7192 35.7782C68.7206 33.9646 68.4939 31.9917 67.2112 31.373ZM49.2327 37.5392C50.5045 36.9036 50.7004 34.9273 49.6681 33.1273C48.634 31.3273 46.7672 30.3815 45.4955 31.0188C44.2256 31.6544 44.0296 33.629 45.0655 35.4307C46.0978 37.229 47.9646 38.1748 49.2327 37.5392Z" fill="white"/>
</svg>
