<svg width="110" height="110" viewBox="0 0 110 110" fill="none" xmlns="http://www.w3.org/2000/svg">
<g clip-path="url(#clip0_80_860)">
<rect x="67.8801" y="26.0301" width="39.4678" height="12.6583" rx="2.68852" transform="rotate(-41.2212 67.8801 26.0301)" fill="#E2001A"/>
<rect x="39.2619" y="36.9228" width="39.4678" height="34.0858" rx="2.68852" transform="rotate(-41.2212 39.2619 36.9228)" fill="#E2001A"/>
<path d="M64.4284 30.3786C64.9873 29.8889 65.8374 29.945 66.3271 30.504C66.8167 31.0629 66.7606 31.913 66.2017 32.4027L54.7319 42.4512C54.1729 42.9409 53.3229 42.8847 52.8332 42.3258C52.3435 41.7669 52.3997 40.9168 52.9586 40.4271L64.4284 30.3786Z" fill="white"/>
<path d="M70.3393 37.1255C70.8982 36.6358 71.7483 36.692 72.238 37.2509C72.7277 37.8099 72.6715 38.6599 72.1126 39.1496L60.6428 49.1981C60.0839 49.6878 59.2338 49.6317 58.7441 49.0727C58.2544 48.5138 58.3106 47.6637 58.8695 47.1741L70.3393 37.1255Z" fill="white"/>
<path d="M45.5408 64.657C62.8237 64.657 79.381 63.9451 90.2733 61.4122C90.8033 61.2889 91.0835 60.7091 90.799 60.2453C89.2592 57.7354 86.3282 55.8869 82.8239 55.366C82.312 53.7265 80.4862 52.5112 78.3058 52.5112C78.0777 52.5112 77.8571 52.5286 77.6377 52.5548C77.6377 52.5399 77.6402 52.5261 77.6402 52.5112C77.6402 50.7181 75.8502 49.2645 73.6414 49.2645C72.9795 49.2645 72.3559 49.3968 71.8068 49.6288C71.0073 46.3372 67.435 43.8555 63.1461 43.8555C60.9434 43.8555 58.9317 44.5105 57.3847 45.5948C56.5592 45.0545 55.5254 44.7214 54.3962 44.6777C52.7265 43.4936 50.5436 42.7749 48.1525 42.7749C46.5647 42.7749 45.0698 43.0918 43.7559 43.6508C42.3453 42.7624 40.5764 42.2321 38.6551 42.2321C35.0741 42.2321 32.0211 44.0676 30.8447 46.6417C30.313 46.5019 29.7465 46.4258 29.159 46.4258C27.2798 46.4258 25.6238 47.192 24.6321 48.3599C23.3207 47.7335 21.7936 47.3729 20.1636 47.3729C16.0272 47.3729 12.5552 49.6812 11.597 52.7994C8.84153 52.9666 6.66736 54.8307 6.66736 57.1116C6.66736 57.1291 6.66984 57.1453 6.66984 57.1628C6.3959 57.1329 6.11824 57.1116 5.83439 57.1116C3.22099 57.1116 0.987689 58.4321 0.0906784 60.2962C-0.118029 60.7299 0.168896 61.2093 0.637075 61.321C11.5121 63.9163 28.048 64.657 45.5408 64.657Z" fill="#E2001A"/>
<path d="M-1.56356 65.1416C-1.7617 64.5142 -1.22241 63.8947 -0.572676 63.9987C4.4406 64.8011 22.256 67.3476 46.4377 67.3476C70.6194 67.3476 88.4349 64.8011 93.4482 63.9987C94.0979 63.8947 94.6372 64.5142 94.439 65.1416L84.2354 97.4531C84.157 97.7016 83.9767 97.8991 83.7295 97.9814C81.7641 98.6364 71.8809 101.433 46.4377 101.433C20.9946 101.433 11.1114 98.6364 9.14597 97.9814C8.89881 97.8991 8.71852 97.7016 8.64007 97.4531L-1.56356 65.1416Z" fill="#E2001A"/>
<path d="M45.294 82.8634C38.1868 83.0152 38.4305 89.5808 39.085 91.6399C39.7395 93.7005 42.8963 91.0299 44.8035 90.7249C46.7123 90.4199 49.9503 93.0905 51.503 91.6399C53.0556 90.1893 52.4027 82.7102 45.294 82.8634ZM43.3118 81.82C44.6926 81.7062 45.6611 80.0323 45.4783 78.0797C45.294 76.1271 44.0256 74.6371 42.6479 74.7495C41.2687 74.8633 40.3018 76.5386 40.483 78.4898C40.6673 80.4424 41.9325 81.9324 43.3118 81.82ZM47.9728 81.6784C49.2974 82.052 50.8657 80.8335 51.4686 78.9582C52.0716 77.083 51.4936 75.2573 50.1659 74.8837C48.8382 74.5102 47.2731 75.7287 46.6701 77.6054C46.0656 79.4792 46.6483 81.3034 47.9728 81.6784ZM55.0081 79.1976C53.9038 78.6649 52.309 79.5011 51.4499 81.0641C50.5845 82.627 50.7798 84.3257 51.8841 84.8583C52.9884 85.3895 54.5848 84.5548 55.4455 82.9904C56.3077 81.4289 56.1125 79.7302 55.0081 79.1976ZM39.5286 84.5066C40.6236 83.9594 40.7923 82.2578 39.9035 80.708C39.0132 79.1582 37.4058 78.3438 36.3109 78.8926C35.2175 79.4398 35.0488 81.1399 35.9407 82.6912C36.8295 84.2396 38.4368 85.0539 39.5286 84.5066Z" fill="white"/>
</g>
<defs>
<clipPath id="clip0_80_860">
<rect width="110" height="110" fill="white"/>
</clipPath>
</defs>
</svg>
